<svg viewBox="0 0 155 155" xmlns="http://www.w3.org/2000/svg">
	<filter id="blur">
		<feGaussianBlur stdDeviation="3" flood-color="black" />
	</filter>
	<!-- 
		Length of verticle lines determined by base points (very first polyline; random points chosen)
		distance = Math.sqrt(Math.pow(60 - 30,2) + Math.pow(20 - 0,2))
	-->
	<!-- Length of line segment: 36.05551275463989; line-segment / 2: 18.027756377319946 -->
	<!-- Dark blue background -->
	<g stroke="#00b4d8" stroke-linejoin="round" fill="#03045e">

		<polyline points="30,0 60,20 30,40 0,20 30,0" />
		<polyline points="0,20 0,56.05551275463989 30,78.027756377319946 30,40 0,20" />
		<polyline points="30,40 30,58.027756377319946 60,38.027756377319946 60,20 30,40" />
		<polyline points="60,58.027756377319946 90,78.027756377319946 60,98.027756377319946 30,78.027756377319946 60,58.027756377319946" />
		<polyline points="90,78.027756377319946 60,98.027756377319946 60,134.08326913195984 90,114.08326913195984 90,78.027756377319946" />
		<polyline points="30,78.027756377319946 60,98.027756377319946 60,134.08326913195984 30,114.08326913195984 30,78.027756377319946" />
		<polyline points="60,58.027756377319946 90,38.027756377319946 120,58.027756377319946 90,78.027756377319946 60,58.027756377319946" />
		<polyline points="120,58.027756377319946 120,94.08326913195984 90,114.08326913195984 90,78.027756377319946 120,58.027756377319946" />
		<polyline points="60,20 75,10 105,30 75,48.027756377319946 60,38.027756377319946 60,20" />
		<polyline points="105,30 105,48.027756377319946 90,39.027756377319946 105,30" />
		<polyline points="120,76.05551275463989 135,84.08326913195984 120,94.08326913195984 120,76.05551275463989" />
		<polyline points="135,84.08326913195984 135,120.13878188659973 105,140.13878188659973 105,104.08326913195984 135,84.08326913195984" />
		<polyline points="90,114.08326913195984 105,104.08326913195984 105,140.13878188659973 90,130.13878188659973 90,114.08326913195984" />
		<polyline points="60,134.08326913195984 90,114.08326913195984 90,130.13878188659973 60,150.13878188659973 60,134.08326913195984" />
		<polyline points="30,114.08326913195984 60,134.08326913195984 60,150.13878188659973 30,130.13878188659973 30,114.08326913195984" />
		<polyline points="30,96.05551275463989 30,130.13878188659973 0,110.13878188659973 0,76.05551275463989 30,96.05551275463989" />
		<polyline points="0,76.05551275463989 15,67.02775637731995 15,86.05551275463989 0,76.05551275463989" />
	</g>
	<!-- Shadows -->
	<g>
		<polyline points="60,136.08326913195984 90,116.08326913195984 90,120 60,140 60,134.08326913195984" filter="url(#blur)" />
		<polyline points="30,116.08326913195984 60,136.08326913195984 60,140 30,120 30,114.08326913195984" filter="url(#blur)" />
	</g>
	<!-- Light blue (almost white) background -->
	<g stroke="#00b4d8" stroke-linejoin="round" fill="#caf0f8">
		<polyline points="60,38.027756377319946 75,48.027756377319946 60,58.027756377319946 45,48.027756377319946 60,38.027756377319946" />
		<polyline points="30,58.027756377319946 45,48.027756377319946 60,58.027756377319946 45,68.027756377319946 30,58.027756377319946" stroke="#00b4d8" fill="#caf0f8" />
	</g>
	<!-- Ligh blue -->
	<g stroke="#00b4d8" stroke-linejoin="round" fill="#90e0ef">
		<polyline points="30,78.027756377319946 30,58.027756377319946 45,68.027756377319946 30,78.027756377319946"  />
		<!--<polyline points="30,78.027756377319946 15,68.027756377319946 15,86.05551275463989 30,96.05551275463989 30,78.027756377319946" />-->
		<polyline points="30,78.027756377319946 30,96.05551275463989 15,86.05551275463989 15,67.02775637731995 30,78.027756377319946" />
	</g>
</svg>